<svg xmlns="http://www.w3.org/2000/svg" viewBox="0 0 134 119.11"><defs><style>.cls-1{fill:#f9f8fb;}</style></defs><title>Products</title><g id="Layer_2" data-name="Layer 2"><g id="Layer_2-2" data-name="Layer 2"><path class="cls-1" d="M130.28,67H111.67V89.33l-7.45-5-7.44,5V67H78.17a3.74,3.74,0,0,0-3.73,3.72v44.67a3.73,3.73,0,0,0,3.73,3.72h52.11a3.73,3.73,0,0,0,3.72-3.72V70.72A3.74,3.74,0,0,0,130.28,67ZM40.94,52.11H93.06a3.73,3.73,0,0,0,3.72-3.72V3.72A3.73,3.73,0,0,0,93.06,0H74.44V22.33L67,17.38l-7.44,4.95V0H40.94a3.73,3.73,0,0,0-3.72,3.72V48.39A3.73,3.73,0,0,0,40.94,52.11ZM55.83,67H37.22V89.33l-7.44-5-7.45,5V67H3.72A3.73,3.73,0,0,0,0,70.72v44.67a3.73,3.73,0,0,0,3.72,3.72H55.83a3.73,3.73,0,0,0,3.73-3.72V70.72A3.74,3.74,0,0,0,55.83,67Z"/></g></g></svg>