<svg xmlns="http://www.w3.org/2000/svg" viewBox="0 0 129.33 129.33"><defs><style>.cls-1{fill:#f9f8fb;}</style></defs><title>Account</title><g id="Layer_2" data-name="Layer 2"><g id="Layer_4" data-name="Layer 4"><path class="cls-1" d="M64.67,0a64.67,64.67,0,1,0,64.66,64.67A64.65,64.65,0,0,0,64.67,0Zm0,25A22.95,22.95,0,1,1,41.72,48,22.95,22.95,0,0,1,64.67,25Zm0,89.7A49.94,49.94,0,0,1,26.47,97a29.07,29.07,0,0,1,25.68-15.6,6.44,6.44,0,0,1,1.85.29,32.5,32.5,0,0,0,21.33,0,6.49,6.49,0,0,1,1.85-.29A29.09,29.09,0,0,1,102.87,97,50,50,0,0,1,64.67,114.73Z"/></g></g></svg>