<svg xmlns="http://www.w3.org/2000/svg" viewBox="0 0 116.95 143.62"><defs><style>.cls-1{fill:#fff;}</style></defs><title>ShipmentDone</title><g id="Layer_2" data-name="Layer 2"><g id="Layer_10" data-name="Layer 10"><path class="cls-1" d="M59.56,10.26H56.4a3.05,3.05,0,0,1-3-3.06V7.1A7.1,7.1,0,0,0,46.25,0h-.17A7.1,7.1,0,0,0,39,7.1v.1a3.06,3.06,0,0,1-3,3.06H32.77a6.1,6.1,0,0,0-6.1,6.09v.13a6.1,6.1,0,0,0,6.1,6.09H59.56a6.1,6.1,0,0,0,6.1-6.09v-.13a6.1,6.1,0,0,0-6.1-6.09Zm-13.4,0a3.08,3.08,0,1,1,3.08-3.08,3.07,3.07,0,0,1-3.08,3.08Zm13.71,119H8.21A8.2,8.2,0,0,1,0,121.05V22.57C0,18,3.67,14.36,6.16,14.36H22.78a10.51,10.51,0,0,0-.21,2.12,10.2,10.2,0,0,0,10.2,10.19H59.56a10.23,10.23,0,0,0,10.2-10.32,10.1,10.1,0,0,0-.2-2H82.07c6.58,0,10.26,3.68,10.26,8.21V84.23c-.68,0-1.36-.11-2-.11a32.71,32.71,0,0,0-8.21,1.08V36.93H10.26V119H57.55a32.73,32.73,0,0,0,2.32,10.26Zm30.41-39A26.67,26.67,0,1,0,117,117,26.68,26.68,0,0,0,90.28,90.28Zm17.43,21.19L91.29,129.94a4.11,4.11,0,0,1-5.63.47l-10.26-8.2a4.11,4.11,0,1,1,5.13-6.41l7.22,5.77L101.57,106a4.1,4.1,0,0,1,6.14,5.45ZM71.81,71.81H18.47a2.05,2.05,0,0,1-2.06-2V67.71a2,2,0,0,1,2.06-2H71.81a2,2,0,0,1,2,2v2.05a2.05,2.05,0,0,1-2,2Zm0-18.46H18.47a2.06,2.06,0,0,1-2.06-2.06v-2a2.05,2.05,0,0,1,2.06-2.05H71.81a2.05,2.05,0,0,1,2,2.05v2a2.05,2.05,0,0,1-2,2.06ZM61.55,88.23H18.47a2.06,2.06,0,0,1-2.06-2.06v-2a2.05,2.05,0,0,1,2.06-2.05H61.55a2,2,0,0,1,2.05,2.05v2a2,2,0,0,1-2.05,2.06Zm-4.1,18.46h-39a2.05,2.05,0,0,1-2.06-2v-2a2,2,0,0,1,2.06-2h39a2,2,0,0,1,2,2v2a2.05,2.05,0,0,1-2,2Z"/></g></g></svg>