<svg xmlns="http://www.w3.org/2000/svg" viewBox="0 0 110.42 126.19"><defs><style>.cls-1{fill:#373737;}</style></defs><title>Notif</title><g id="Layer_2" data-name="Layer 2"><g id="Layer_7" data-name="Layer 7"><path class="cls-1" d="M55.21,126.19A15.77,15.77,0,0,0,71,110.42H39.44A15.77,15.77,0,0,0,55.21,126.19Zm53.08-36.9c-4.76-5.11-13.67-12.81-13.67-38C94.62,32.11,81.2,16.78,63.09,13V7.89a7.88,7.88,0,1,0-15.76,0V13C29.22,16.78,15.79,32.11,15.79,51.26c0,25.22-8.91,32.92-13.67,38A7.7,7.7,0,0,0,0,94.64a7.9,7.9,0,0,0,7.91,7.89H102.5a7.9,7.9,0,0,0,7.92-7.89A7.71,7.71,0,0,0,108.29,89.29Z"/></g></g></svg>