<svg xmlns="http://www.w3.org/2000/svg" viewBox="0 0 144 112.68"><defs><style>.cls-1{fill:#fff;}</style></defs><title>ReadyToPick</title><g id="Layer_2" data-name="Layer 2"><g id="Layer_9" data-name="Layer 9"><path class="cls-1" d="M140.65,109.72H126.08a3.35,3.35,0,0,1-3.36-3.35V59.89a3.35,3.35,0,0,1,3.36-3.36h14.57A3.35,3.35,0,0,1,144,59.89v46.48a3.35,3.35,0,0,1-3.35,3.35Zm-25.33-43.4a39.16,39.16,0,0,0-17.16-4.18c-10.45,0-21.47,7.74-21.47,7.74H48.06c-3.67,0-11.51,1.93-11.51,11.22,0,7.73,7.26,11.21,11.51,11.21H81.14c3.07.3,5.61,3.64,5.61,3.64H47.81c-6.83,0-13.55-4.8-14.7-9.81C25.17,80.72,14.78,69.66,10,64.63c-5.65-5.93-13.5.5-8.25,8C4.31,76.31,14.36,87.11,26,99.05c10.47,10.7,29.16,13.63,43.59,13.63,15.38,0,30.85-8.37,45.42-10.75a2,2,0,0,0,1.49-2.11V68.3a2.2,2.2,0,0,0-1.21-2ZM31.65,78.61c2-.48,3.81-2.75,3-4.16C32.8,71.39,19.33,60,14.72,58.11,11,56.6,10.1,59.88,10.1,59.88L31.65,78.61Zm3.84-8c1.95-.47,3.81-2.75,3-4.16-1.82-3.06-11.1-10.3-15.71-12.15C19,52.76,18.12,56,18.12,56S33.87,69.17,35.49,70.58Zm63.35-60.2V45A10.38,10.38,0,0,1,88.46,55.37h-39A10.37,10.37,0,0,1,39.1,45V10.38A10.37,10.37,0,0,1,49.47,0H65.33V7.81H72.7V0H88.46A10.38,10.38,0,0,1,98.84,10.38Zm-20,19.76L67.69,16.89,56.53,30.09H63V45.35h9.21V30.09c6.49,0,6.55.05,6.55.05Z"/></g></g></svg>