<svg xmlns="http://www.w3.org/2000/svg" viewBox="0 0 168.78 94.64"><defs><style>.cls-1{fill:#fff;}</style></defs><title>OnProgress</title><g id="Layer_2" data-name="Layer 2"><g id="Layer_8" data-name="Layer 8"><path class="cls-1" d="M62.54,66.45A14.1,14.1,0,1,0,76.63,80.56,14.1,14.1,0,0,0,62.54,66.45Zm0,21.15a7,7,0,1,1,7-7,7.05,7.05,0,0,1-7,7ZM168.78,56v15A6.79,6.79,0,0,1,162,77.86h-7.27a18.65,18.65,0,0,0-36.9,0H81a18.63,18.63,0,0,0-36.87,0H35a6.79,6.79,0,0,1-6.79-6.79V56Zm-32.5,10.43a14.1,14.1,0,1,0,14.08,14.11,14.11,14.11,0,0,0-14.08-14.11Zm0,21.15a7,7,0,1,1,7-7,7.05,7.05,0,0,1-7,7ZM166.1,40.88,139.4,14.47A9.09,9.09,0,0,0,133,11.84H119.56v-5A6.78,6.78,0,0,0,112.77,0H35a6.8,6.8,0,0,0-6.8,6.79V7.86L.63,11,49.49,17.4,0,22.31l49.31,7L0,33.6l28.21,5.32V52.27H168.78v-5a9.11,9.11,0,0,0-2.68-6.43Zm-11.64.88H128.62a1.05,1.05,0,0,1-1.06-1.06v-20a1.06,1.06,0,0,1,1.06-1.07h4.92a1.13,1.13,0,0,1,.74.29l20.91,20a1.06,1.06,0,0,1-.73,1.83Z"/></g></g></svg>