<svg xmlns="http://www.w3.org/2000/svg" viewBox="0 0 150 116.64"><defs><style>.cls-1{fill:#f9f8fb;}</style></defs><title>Home</title><g id="Layer_2" data-name="Layer 2"><g id="Layer_1-2" data-name="Layer 1"><path class="cls-1" d="M73,30.26,25,69.8v42.68a4.17,4.17,0,0,0,4.17,4.16l29.18-.07a4.16,4.16,0,0,0,4.14-4.17V87.48a4.17,4.17,0,0,1,4.17-4.17H83.33a4.17,4.17,0,0,1,4.16,4.17v24.9a4.15,4.15,0,0,0,4.16,4.18h0l29.17.08a4.16,4.16,0,0,0,4.16-4.16V69.77L77,30.26a3.18,3.18,0,0,0-4,0Zm75.84,26.88-21.77-18V3.12A3.13,3.13,0,0,0,124,0H109.37a3.12,3.12,0,0,0-3.12,3.12V22L82.93,2.85a12.49,12.49,0,0,0-15.88,0L1.13,57.14a3.12,3.12,0,0,0-.41,4.4h0l6.64,8.07a3.13,3.13,0,0,0,4.4.43h0L73,19.58a3.2,3.2,0,0,1,4,0L138.25,70a3.12,3.12,0,0,0,4.4-.41h0l6.64-8.08a3.12,3.12,0,0,0-.43-4.39Z"/></g></g></svg>