<svg xmlns="http://www.w3.org/2000/svg" xmlns:xlink="http://www.w3.org/1999/xlink" viewBox="0 0 657.7 657.7"><defs><style>.cls-1{fill:#f7f2ff;}.cls-2{fill:url(#linear-gradient);}.cls-3{fill:url(#linear-gradient-2);}.cls-4{fill:url(#linear-gradient-3);}</style><linearGradient id="linear-gradient" x1="511.21" y1="204.11" x2="138.78" y2="464.89" gradientUnits="userSpaceOnUse"><stop offset="0" stop-color="#51d690"/><stop offset="0.23" stop-color="#52d593"/><stop offset="0.41" stop-color="#54d49d"/><stop offset="0.58" stop-color="#58d0ae"/><stop offset="0.74" stop-color="#5dccc6"/><stop offset="0.89" stop-color="#64c6e4"/><stop offset="1" stop-color="#6ac1ff"/></linearGradient><linearGradient id="linear-gradient-2" x1="469.9" y1="242.48" x2="229.07" y2="411.11" gradientUnits="userSpaceOnUse"><stop offset="0" stop-color="#51d690"/><stop offset="1" stop-color="#6ac1ff"/></linearGradient><linearGradient id="linear-gradient-3" x1="377.66" y1="317.81" x2="242.47" y2="412.47" xlink:href="#linear-gradient"/></defs><title>Asset 12</title><g id="Layer_2" data-name="Layer 2"><g id="Layer_2_copy_2" data-name="Layer 2 copy 2"><rect class="cls-1" width="657.7" height="657.7" rx="100" ry="100"/><g id="Shape"><path class="cls-2" d="M387.76,490.64c-105.42,0-190.88-84.37-190.88-188.45s85.46-188.44,190.88-188.44a192.61,192.61,0,0,1,69.15,12.8A236.09,236.09,0,0,0,333.07,91.68c-131,0-237.16,106.19-237.16,237.17S202.09,566,333.07,566c118.22,0,216.22-86.5,234.2-199.66C540.68,438.84,470.36,490.64,387.76,490.64Z"/><path class="cls-3" d="M349.49,179.81a147,147,0,1,0,147,147A147,147,0,0,0,349.49,179.81Zm-24,267A109.62,109.62,0,1,1,435.13,337.17,109.61,109.61,0,0,1,325.51,446.78Z"/><path class="cls-4" d="M310.07,282.63a82.51,82.51,0,1,0,82.51,82.51A82.51,82.51,0,0,0,310.07,282.63ZM320,419.14a61.35,61.35,0,1,1,61.35-61.35A61.34,61.34,0,0,1,320,419.14Z"/></g></g></g></svg>