<svg xmlns="http://www.w3.org/2000/svg" viewBox="0 0 139.33 111.47"><defs><style>.cls-1{fill:#f9f8fb;}</style></defs><title>Services_1</title><g id="Layer_2" data-name="Layer 2"><g id="Layer_3" data-name="Layer 3"><path class="cls-1" d="M10.93,81.77a3.49,3.49,0,0,0,4.27,2.46L62.31,71.6a3.48,3.48,0,0,0,2.46-4.26L54,27a3.49,3.49,0,0,0-4.27-2.46L32.87,29l5.4,20.18L24.82,52.79l-5.4-20.18L2.59,37.12A3.49,3.49,0,0,0,.13,41.39ZM83.6,0a7,7,0,0,0-7,7V77.42L1.28,98A1.72,1.72,0,0,0,.07,100.1l2.74,10.08a1.73,1.73,0,0,0,2.13,1.22L90.65,88a24.35,24.35,0,0,0,48.68-.94V0ZM115,97.53A10.45,10.45,0,1,1,125.4,87.08,10.45,10.45,0,0,1,115,97.53Z"/></g></g></svg>